<svg xmlns="http://www.w3.org/2000/svg" version="1.1" xmlns:xlink="http://www.w3.org/1999/xlink" width="1024" height="1024"><svg xmlns="http://www.w3.org/2000/svg" xml:space="preserve" viewBox="0 0 1024 1024">
  <style>
    .path { fill: #17191e }
    @media (prefers-color-scheme: dark) {
      .path { fill: #f0f0f0 }
    }
  </style>
  <path d="M741.347 813.607C759 827.57 775.823 841.89 790.07 859.274c-2.712 2.07-4.78.63-6.786-.235-12.548-5.408-23.011-14.025-33.61-22.334-27.59-21.629-56.094-41.814-87.99-56.71-22.783-10.639-47.179-15.832-71.67-20.63-18.727-3.669-37.742-3.542-56.663-3.814-16.665-.24-33.246-1.592-49.873-2.247-8.066-.317-15.531 1.61-22.503 5.453-7.208 3.973-14.568 7.273-22.967 7.695-2.358.119-4.492 1.366-6.371 2.722-10.324 7.451-22.034 11.321-34.274 14.351-19.513 4.83-36.27 15.702-53.31 25.78-24.51 14.497-48.045 30.611-73.098 44.214-7.175 3.895-14.464 7.548-22.295 9.999-1.76.551-3.46 1.287-5.451-.026-.39-3.9 2.958-5.234 5.355-6.843 17.702-11.882 35.32-23.908 53.338-35.298 22.389-14.154 45.444-27.194 68.849-39.624 8.773-4.66 17.903-8.08 27.623-9.761 8.558-1.48 16.236-4.847 23.328-9.654 5.718-3.875 12.023-5.697 18.816-5.586 3.95.065 7.034-1.7 10.208-3.528 7.92-4.563 15.61-9.558 24.99-10.89 6.82-.967 13.59-.81 20.393-.171 1.817.17 3.638.3 5.45.513 3.472.407 4.402-1.369 4.037-4.467-.367-3.11-.604-6.236-.933-9.734-12.266-1.202-24.408-2.982-36.04-7.108-12.228-4.338-24.672-8.255-34.815-16.916-5.348-4.566-9.094-10.102-10.756-16.996-.425-1.763-.468-3.411 1.248-4.407 1.686-.978 3.196-.26 4.502.994 1.916 1.837 3.844 3.663 5.861 5.584-.401-6.84-4.623-10.133-11.839-8.994-4.59.724-9.061 1.911-13.06 4.625-4.975 3.376-10.282 4.71-16.552 3.426-5.791-1.186-11.98-1.652-15.386 5.457-1.143 2.386-3.818 4.067-6.55 4.113-9.35.16-15.584 5.63-20.617 12.413-7.84 10.566-17.276 18.674-29.581 23.705-7.813 3.194-13.16 9.58-16.953 17.031-4.079 8.014-7.906 16.158-11.702 24.31-2.642 5.673-6.59 9.948-12.297 12.569-.604.277-1.155.67-1.76.944-9.204 4.154-15.638 10.084-17.76 20.861-2.667 13.539-12.1 20.1-25.86 20.323-3.963.065-5.692 1.855-5.443 5.923.46 7.546 2.318 14.775 4.902 21.792 1.998 5.429 1.055 9.687-3.49 13.267-6.442 5.075-11.745 11.328-17.44 17.169-6.253 6.412-13.344 11.47-21.791 14.637-17.278 6.478-34.226 13.884-52.166 18.486-8.756 2.246-17.66 3.298-26.687 2.642-3.941-.286-7.89-1.023-11.057-5.418 20.983-9.186 37.75-23.315 52.56-41.551-5.894.579-11.032 1.101-16.173 1.586-17.591 1.66-34.308-.06-48.199-12.577-5.996-5.403-10.755-11.69-13.931-19.114 1.599-1.42 2.815-.459 3.834.127 17.613 10.115 35.103 7.356 52.469-.565 26.153-11.93 45.089-31.49 59.022-56.268 1.143-2.033 2.326-4.045 3.402-6.112 1.06-2.037 2.008-4.133 3.299-6.814-10.892 7.396-22.095 12.751-34.651 14.267-13.14 1.586-26.257 1.729-38.513-4.628-6.351-3.293-11.433-7.999-15.34-13.958-.87-1.328-2.103-2.656-1.43-4.62 2.034-.487 2.888 1.276 4.044 2.24 12.162 10.138 24.21 11.537 38.328 4.065 15.143-8.013 26.13-20.448 35.59-34.361 7.492-11.02 13.79-22.689 18.816-36.112-5.326 2.69-9.745 5.149-14.344 7.207-17.377 7.776-33.773 5.776-48.797-5.761-5.14-3.948-8.992-9.142-10.1-15.928 2.002-.61 2.503.819 3.045 1.588 7.688 10.931 22.573 11.127 32.94 5.69 11.262-5.906 19.446-15.01 26.106-25.59 11.663-18.53 18.263-39.123 24.047-60.011 2.88-10.403 5.435-20.895 8.124-31.35.254-.989.494-1.943 1.61-2.274 0 3.999.323 8.015-.053 11.964-2.24 23.518-5.446 46.856-14.074 69.08-7.022 18.088-12.657 25.96-32.36 44.837 12.396-4.794 22.617-11.05 31.386-19.612 2.333-2.278 3.176-5.46 4.14-8.456 2.187-6.806 4.171-13.678 6.326-20.495.518-1.64.48-3.674 2.464-4.597 3.339 7.924-5.917 48.296-16.383 71.256-10.337 22.675-23.169 43.478-44.01 58.335 24.07-7.087 43.244-20.526 55.603-43.837 1.46 3.108.993 5.526.679 7.875-.197 1.473-.47 3.034-1.143 4.33-8.456 16.267-11.458 34.772-20.375 50.771-17.396 31.216-42.128 53.788-77.41 63.255-2.717.73-5.528 1.165-8.322 1.54-2.764.37-5.545.812-8.387.708 13.844 4.425 27.925 2.753 42.015 1.7 14.498-1.083 27.125-6.469 37.656-17.162 1.997 4.275.59 6.914-1.114 8.669-12.675 13.053-20.515 30.017-34.26 42.175-2.364 2.092-4.744 4.168-6.831 6.992 6.83-2.566 13.715-4.995 20.478-7.727 11.694-4.724 24.426-7.194 34.78-14.835 8.999-6.64 15.578-15.937 24.104-23.155 1.498-1.268 1.157-2.853.651-4.58-1.96-6.69-3.96-13.378-5.6-20.151-2.57-10.62 2.622-18.006 13.291-19.35 2.472-.31 4.943-.639 7.4-1.041 7.98-1.306 10.573-3.457 11.698-11.766 1.437-10.62 6.215-18.092 16.367-22.478 8.856-3.825 14.782-10.67 18.614-19.863 4.523-10.85 9-21.91 17.878-30.344 3.669-3.485 7.45-6.804 12.115-8.663 11.985-4.776 20.99-13.28 29.498-22.556 3.93-4.285 7.5-9.228 12.767-11.831 7.162-3.54 15.077-5.108 21.567-10.604 4.012-3.397 10.301-2.324 15.525-1.357 3.238.6 5.962.265 8.573-1.35 10.91-6.752 21.895-6.473 33.297-1.115 5.006 2.352 10.59 2.861 16.111 1.74 3.158-.64 6.217-.92 9.375-.03 2.543.716 4.262.006 4.295-3.056.018-1.647.244-3.291.41-5.372-46.624-4.776-86.951-22.227-117.77-59.252 1.274 23.117 7.684 38.556 28.226 46.331-5.442 4.076-11.313 4.432-17.154 3.885-18.223-1.705-31.424-11.673-41.85-26.046-4.58-6.314-7.813-13.391-11.586-20.636-1.815 6.935.735 13.432.128 20.334-3.507-.973-4.866-3.36-6.445-5.366-11.081-14.072-16.266-30.744-20.874-47.66-.13-.48-.14-.993-.264-1.475-2.82-10.957-2.832-10.901-13.816-13.01-1.582-.303-2.475.266-3.57 1.07-8.525 6.264-21.233 5.124-24.252-8.625-.452-2.058-1.137-3.584-3.226-3.792-3.85-.385-7.335-2.066-11.274-2.976-2.215 2.915-2.22 6.516-2.942 9.809-4.719 21.521-14.362 40.188-32.345 53.485-11.475 8.484-24.12 12.096-37.723 4.254-2.747-1.583-2.717-1.645-3.074-5.03.627-.062 1.316-.328 1.867-.155 14.731 4.63 25.934-1.775 35.863-11.657 14.662-14.593 21.872-33.14 27.42-52.534.914-3.196-1.06-4.55-3.25-5.928-13.26-8.349-26.87-16.07-41.088-22.676-21.86-10.156-42.464-22.31-60.457-38.488-5.182-4.66-10.018-9.76-11.063-17.278-1.47-10.58 3.686-16.802 14.184-17.897 17.921-1.868 35.875-2.19 53.851-1.859 3.83.071 5.997-1.037 7.723-4.633 4.807-10.014 10.077-19.805 15.475-30.29-17.713 1.302-32.51-2.608-41.45-18.626-4.463-7.997-4.83-14.524-1.89-19.227.987 0 1.552.548 1.7 1.462 2.282 14.073 13.327 17.525 26.17 14.466 11.507-2.742 20.736-9.724 29.147-17.697 5.027-4.766 10.398-9.322 14.353-16.126-27.632-2.639-41.916-18.229-46.86-43.042l1.844-2.792c15.552 24.176 35.648 24.22 59.108 12.82-6.05-6.076-11.946-10.831-14.019-18.396 4.366 0 8.437-.174 12.49.03 19.347.975 35.33-6.553 49.274-19.3 10.107-9.239 18.981-19.64 28.082-29.828 1.373-1.538 2.347-3.69 5.77-3.693-4.025 17.375-14.413 30.316-26.56 42.019-12.43 11.976-27.117 19.48-45.457 19.935 2.208 3.226 4.9 3.185 7.17 3.825 6.576 1.853 13.268 3.052 20.139 3.046 1.3 0 2.884-.2 3.46 1.357.661 1.785-.756 2.858-1.966 3.632-6.404 4.097-13.376 4.542-20.62 2.936-2.243-.498-4.356-1.27-6.58.55-10.864 8.894-23.048 14.329-37.477 13.69 12.034 5.296 23.22.506 35.966-3.385-7.726 13.822-16.132 25.555-25.577 36.537-9.636 11.203-20.067 21.437-35.312 24.88 8.634 1.223 16.769-.667 25.82-3.105-2.23 8.874-5.637 16.646-9.069 24.373-3.498 7.875-7.346 15.595-11.181 23.68 4.666 1.452 9.144.924 13.54.59 2.897-.22 3.12-3.118 3.92-5.228 8.106-21.398 17.811-41.993 30.591-61.047.347-.517.775-.979 1.87-1.165-7.263 22.686-16.85 44.467-25.818 66.484 8.398 3.03 13.78 1.433 19.15-4.615 20.767-23.384 33.948-50.782 43.043-80.398.596-1.943.645-4.272 3.337-5.98-4.304 34.886-16.81 65.477-40.25 91.312 7.297 3.861 17.616 2.178 22.74-2.192 11.061-9.432 14.077-22.048 15.253-35.58.167-1.927.006-4.032 2.312-5.114 2.222 1.418 1.344 3.629 1.343 5.44-.005 16.999-.015 33.999-.221 50.996-.53 43.79 3.577 86.951 16.714 128.977 1.926 6.16 3.004 12.583 4.541 18.868.951 3.89 2.353 7.61 5.11 10.967-2.05-16.238-2.36-32.465-1.363-49.439 2.863 1.696 3.08 3.642 3.402 5.569 4.1 24.52 16.198 45.209 31.041 64.556 4.44 5.788 10.03 10.18 16.87 12.891 1.348.534 2.621 1.46 4.54.34-17.662-14.133-18.721-34.588-21.342-54.529-1.376-10.471-.777-20.95-.86-31.426-.025-3.087-1.333-5.42-2.908-7.78-9.159-13.726-15.56-28.597-18.683-44.84-.601-3.128-.64-3.83.176-8.016 2.581.375 2.64 2.707 3.302 4.377 6.154 15.518 12.917 30.7 23.113 44.107 6.3 8.285 13.265 15.733 24.235 20.37-15.76-20.89-19.558-45-24.767-68.6-2.188-9.912-2.557-20.077-3.455-30.148-1.673-18.771-1.55-37.627-.978-56.425 1.662-54.584 13.923-106.338 42.794-153.358 7.948-12.945 16.768-25.265 28.615-35.07 2.713-2.245 5.653-4.13 8.983-5.323 2.7-.967 5.393-1.368 7.976.398-.167 3.037-2.912 3.155-4.414 4.476-18.851 16.57-34.802 35.23-44.426 58.845-10.192 25.006-19.206 50.323-23.391 77.125-1.768 11.322-2.735 22.726-3.617 34.15-.77 9.968-.955 19.94-1.157 29.919-.04 1.975-.006 3.952-.006 6.069 2.484.871 4.48.176 6.543-.397 15.153-4.211 27.833-12.735 39.259-23.127 26.533-24.134 48.736-51.87 67.83-82.198 13.412-21.305 26.288-42.876 36.51-65.935.371-.838.646-1.95 2.633-1.908.654 5.158.982 10.321-.25 15.484-5.355 22.443-17.119 41.772-29.703 60.67-7.554 11.343-15.332 22.536-23.286 34.203 6.34.68 12.424 1.04 18.353 2.449 6.204 1.475 7.74 4.387 4.794 10.137-7.722 15.069-24.604 24.653-42.2 15.137-3.056-1.652-4.514-.248-6.318 1.652-11.379 11.991-23.421 23.209-37.273 32.373-10.027 6.633-20.894 11.015-32.846 12.3-3.346.36-4.18 1.709-4.2 4.702-.244 36.314 6.055 71.417 19.365 105.23 2.4 6.098 5.927 11.576 9.9 16.728 5.704 7.396 12.987 12.175 23.35 11.978-7.847 6.993-28.376 4.179-51.757-11.288 3.35 10.668 7.04 20.19 13.392 28.62 18.257 24.231 43.51 37.47 71.647 46.574 18.954 6.133 38.58 8.208 58.126 10.883 12.705 1.738 25.508 2.322 38.332 1.998 44.353-1.12 86.254-11.618 124.495-34.405 33.232-19.802 50.878-50.254 56.857-87.95.334-2.108 1.342-4.153.737-6.67-9.3 14.844-17.317 30.73-35.797 36.226 12.277-16.925 12.493-36.889 15.116-56.214 1.88-13.854 3.59-27.761 2.83-41.734-1.143-21.048-2.279-42.117-5.735-62.973-.527-3.185-2.222-4.365-4.938-4.492-21.109-.987-40.398-7.55-58.209-18.755-.806-.507-1.805-.71-2.878-1.116-7.292 11.488-17.806 16.838-31.097 16.746-10.935-.076-24.475-9.753-28.327-20.011-1.837-4.89-.034-8.039 5.66-9.36 10.074-2.337 20.173-1.401 30.248.118 2.279.343 4.533.855 7.768 1.476-13.932-10.385-26.278-21.304-37.157-33.706-16.908-19.275-34.171-38.336-46.81-60.883-3.391-6.051-6.386-12.444-5.134-19.913 2.442.181 3.063 2.087 4.13 3.471 25.781 33.416 52.497 66.02 84.509 93.787 17.728 15.378 36.742 28.746 60.304 33.867 5.995 1.303 12.053 2.134 19.349 2.611-11.863-44.859-28.46-87.34-47.196-129.603 3.107.255 3.55 2.12 4.45 3.377 24.143 33.768 39.995 71.259 49.8 111.43 5.082 20.824 8.37 41.91 10.287 63.299 1.506 16.79 2.286 33.563 1.614 50.34-.71 17.752-3.564 35.287-8.287 52.5 11.867-20.643 17.654-43.392 22.128-67.23 9.425 15.987 5.43 99.592-6.303 138.297 16.906-19.685 29.412-40.733 33.843-65.893 4.347-24.689 7.725-49.493 9.225-74.553.656-10.946 1.93-21.854 1.884-32.843-.005-1.271-.226-2.719 1.331-3.586 2.38.084 2.077 1.979 2.33 3.55 3.825 23.76 4.127 47.697 3.617 71.673-.242 11.39.153 22.657 5.184 32.573 6.79-70.467 5.777-140.784-21.41-208.92 3.665.142 4.693 2.136 5.884 3.825 10.825 15.353 16.556 32.892 21.7 50.68.55 1.902 1.137 3.793 1.726 5.683.041.134.236.22.636.572 3.564-.584 6.924-2.247 10.746-4.09-3.807-9.756-9.358-18.736-11.441-30.06 6.302 4.442 10.563 9.388 13.872 15.193 1.484 2.602 2.986 5.221 4.14 7.975 1.36 3.246 3.146 4.203 6.602 2.824 3.665-1.463 7.584-2.293 11.406-3.404-.004-2.805-2.054-3.973-3.412-5.54-18.444-21.268-37.105-42.372-53.793-65.075-11.142-15.157-19.899-31.925-31.566-46.782-11.737-14.945-23.43-29.888-36.746-43.487-1.392-1.421-3.923-2.977-1.82-5.374 1.66-1.893 4.135-1.48 5.946-.053 7.554 5.956 15.782 3.92 23.848 1.958 8.689-2.114 16.467-6.247 24.187-13.218-12.214 3.902-23.68 4.047-35.148 3.517-9.048-.418-17.782-2.45-25.778-6.93-1.58-.887-3.05-2.029-4.41-3.235-1.479-1.312-2.15-3.078-1.173-4.947 1.03-1.971 2.769-1.174 4.412-.86 11.936 2.274 23.918 3.91 36.134 3.68 19.091-.363 35.306-7.225 48.803-20.69 1.457-1.453 2.55-3.582 5.097-3.616-2.062 24.75-13.262 49.318-44.718 57.064 23.91 6.943 46.145.785 68.302-8.656-3.317 7.774-7.95 14.353-15.295 18.55-14.807 8.462-30.524 8.08-46.495 4.247-3.688-.885-7.33-1.961-11.604-3.114 19.73 21.495 39.952 41.266 67.173 52.225 16.814 6.768 33.58 9.117 50.862 1.938 1.406-.585 2.958-1.57 4.984-.967-.127 2.235-1.776 3.402-3.151 4.692-12.89 12.092-28.118 15.05-44.945 11.224-11.434-2.6-22.202-6.965-32.812-13.667.475 2.95 2.067 4.352 3.45 5.851 20.472 22.207 38.408 46.475 56.95 70.244 5.548 7.111 5.306 7.233 14.121 5.164 21.332-5.007 42.888-8.872 64.488-12.498 5.837-.98 12.533 3.3 15.04 9.348 2.986 7.208 2.383 14.26-.813 21.24-4.84 10.572-11.903 19.695-19.409 28.363-21.15 24.422-42.6 48.584-64.043 72.752-5.535 6.237-11.623 11.96-18.822 16.306-1.545.933-2.086 1.884-1.701 3.624 6.185 27.963 11.961 56.072 29.955 79.592 3.485 4.555 7.81 8.18 12.5 11.407 9.219 6.344 18.843 6.78 28.836 1.966 1.319-.636 2.528-1.651 4.143-1.488 1.226 9.875-10.271 19.55-20.128 22.916-10.62 3.626-21.23 2.771-32.917-1.188 4.637 8.73 9.586 15.706 14.896 22.423 12.052 15.245 25.107 29.442 42.53 38.781 11.925 6.392 24.07 8.656 36.543 1.288 2.745-1.62 5.002-3.704 6.99-7.453 1.122 3.498.871 5.768.202 8.172-4.874 17.52-22.372 30.666-40.8 31.368-25.564.974-47.553-7.88-68.649-24.247 2.265 4.537 3.806 7.835 5.537 11.03 1.745 3.22 3.61 6.379 5.54 9.492 10.135 16.35 20.88 32.258 36.95 43.49 10.891 7.614 22.678 12.759 36.482 9.35 2.327-.575 4.531-1.642 7.611-2.786-2.729 10.361-9.351 15.423-18.087 18.484-8.54 2.992-17.26 2.532-26.836.934 1.703 3.434 4.008 5.07 6.005 6.883 13.516 12.267 27.94 23.227 45.066 30.05 8.826 3.517 17.945 4.634 27.397 2.63 2.61-.554 4.74-2.033 7.991-3.391-3.321 11.124-9.82 18.42-19.165 23.266-15.25 7.907-31.093 8.875-47.402 3.685-2.46-.783-4.815-2.11-8.51-2.036 9.235 12.194 20.24 21.115 32.404 28.725 12.287 7.688 25.14 13.741 40.51 13.42-8.295 15.32-22.925 16.6-38.668 17.223 9.314 6.117 19.954 8.694 28.206 16.82-4.635 1.367-8.315 1.06-12.021.329-21.342-4.207-39.911-14.52-57.74-26.377-23.029-15.317-45.218-31.802-67.158-48.631-3.544-2.718-5.554-5.863-5.812-10.447-.28-4.985-2.822-9.152-6.13-12.825-3.59-3.986-7.746-7.338-12.076-10.448-7.937-5.702-11.57-13.547-11.643-23.109-.06-7.774-2.86-13.97-9.71-17.935-8.945-5.18-14.995-12.998-20.375-21.556-6.651-10.58-13.538-21.01-22.12-30.188-3.556-3.803-7.353-7.308-12.348-9.114-9.324-3.371-16.903-9.173-23.527-16.416-2.583-2.825-5.34-5.48-8.513-7.696-2.363-1.65-5.102-2.435-7.585-1.555-7.246 2.569-12.149-.948-16.725-5.696-3.961-4.109-8.704-6.109-14.4-5.285-2.442.354-4.812.933-6.18 3.57-8.479 16.332-22.724 26.188-38.743 33.863-7.699 3.688-16.064 5.287-24.494 6.388-1.33.174-2.671.145-4.104 1.635 2.83 5.51 2.985 11.665 1.779 17.946 67.453 3.448 126.92 26.834 179.689 68.696m142.33 60.211c-19.225-18-33.934-39.15-44.755-63.033 1.023-.244 1.555-.165 1.92.124.78.617 1.566 1.267 2.185 2.036 11.905 14.78 28.027 23.27 45.147 30.243 5.469 2.227 11.253 2.9 17.126 2.827 10.1-.125 18.468-2.022 23.082-5.18-9.808-1.318-19.153-4.092-27.722-9.129-41.164-24.196-68.512-60.43-89.163-102.48-.414-.843-1.058-1.78.113-2.73 1.425.316 1.973 1.642 2.724 2.676 8.217 11.325 16.649 22.506 24.533 34.06 7.717 11.309 19.222 15.953 31.625 19.27 1.555.417 3.46.916 5.514-.371-.893-.612-1.362-1.115-1.934-1.3-21.687-6.97-35.374-22.935-46.696-41.539-15.129-24.86-24.17-52.14-31.63-80.03-1.218-4.557-2.662-9.116-2.377-14.063 3.56 5.368 6.73 10.901 9.889 16.44 14.813 25.966 35.726 44.066 65.547 50.501 12.523 2.703 24.895 2.361 37.61-2.923-4.344-.92-7.908-1.662-11.467-2.43-20.443-4.416-36.434-16.216-49.835-31.468-33.709-38.365-55.317-82.364-60.286-133.756-.294-3.038-.038-6.13-.038-9.196 5.015 17.06 9.044 34.022 14.671 50.514 6.199 18.165 15.756 33.586 35.895 38.972 3.65.976 7.42 2.857 11.403 1.09-.164-1.48-1.033-2.02-1.921-2.46-10.54-5.215-17.983-13.656-23.916-23.485-11.827-19.59-16.936-41.36-20.313-63.688-.68-4.495-.268-9.254-2.476-13.833-6.593 2.126-12.552 5.217-19.182 6.115-1.115.151-1.416 1.227-1.589 2.28-1.292 7.873-2.926 15.637-7.867 22.206 3.58 3.61 4.982 7.758 5.934 12.257 3.883 18.361 4.522 36.951 3.781 55.586-.282 7.103-1.53 14.27-5.248 20.604-5.333 9.088-14.951 9.057-20.12-.095-2.916-5.161-3.997-10.875-4.187-16.766-.541-16.852 1.236-33.543 4.251-50.059 1.44-7.89 1.271-16.868 10.09-21.714-4.659-3.256-5.978-8.485-9.032-12.586-5.548 21.54-9.594 43.108-23.573 60.873-6.804 8.647-13.49 17.424-22.557 23.894-4.277 3.052-8.765 5.935-15.375 5.34 3.383-6.957 6.527-13.356 8.084-20.31 1.518-6.777 3.648-13.465 3.453-20.599-10.11 17.908-23.074 33.115-39.789 44.988-2.142 1.52-1.954 3.087-1.073 5.156 3.196 7.504 6.368 15.02 9.377 22.6.952 2.398 3.824 5.734.158 7.34-3.287 1.44-4.493-2.576-5.634-4.974-3.836-8.062-7.331-16.278-9.979-24.874-.811.206-1.356.208-1.733.46-18.405 12.332-39.466 18.245-60.211 24.904-9.593 3.079-9.606 3-7.709 12.565.381 1.923 1.1 3.967 3.25 3.798 6.083-.48 12.756 2.453 18.072-2.935 1.161-1.177 3.079-1.337 4.233-.67 2.932 1.696 5.004.117 7.282-1.19 7.169-4.111 14.856-5.844 22.39-1.912 9.278 4.842 18.45 9.09 29.07 10.622 7.509 1.084 13.124 6.896 18.314 12.432 2.66 2.838 5.516 5.388 9.84 6.621-11.99-29.79-17.6-51.068-12.442-55.96 2.027.937 1.796 3.017 2.306 4.686 5.408 17.673 11.816 34.96 19.163 51.93 2.536 5.857 7.04 8.87 12.026 11.808 1.145-1.44.256-2.465-.059-3.522-2.611-8.757-5.534-17.434-7.784-26.283-3.57-14.036-5.96-28.278-5.384-42.859.094-2.371-.522-5.136 3.223-6.415 2.325 4.21 1.903 8.898 2.628 13.343 5.034 30.87 14.392 60.448 27.58 88.748 6.216 13.336 13.677 25.982 27.363 33.443 7.047 3.842 9.44 10.704 9.744 18.075.434 10.517 3.59 19.17 13.382 24.401 1.165.622 2.2 1.501 3.251 2.316 6.364 4.933 11.678 10.883 12.798 19.016.993 7.21 4.541 11.677 10.357 15.734 19.116 13.335 37.313 27.978 57.356 40 15.099 9.057 31.49 11.705 50.143 10.43-16.593-6.291-30.343-14.74-42.828-26.507M121.25 477.22c8.907 6.142 17.589 12.648 26.768 18.352 19.378 12.043 40.216 21.545 59.491 33.8 7.997 5.085 15.798 10.543 25.024 13.397 3.883 1.201 7.178 1.756 11.277-.411 9.987-5.282 19.676-.437 21.366 10.506.683 4.42 3.38 4.092 6.062 3.74 3.978-.52 2.026-3.31 1.54-5.374-3.552-15.077-5.467-30.377-6.093-45.834-.286-7.057-1.422-8.466-9.291-9.327.46 6.207-1.591 12.445 2.887 18.2 1.56 2.004 2.666 4.49 4.251 6.627 1.2 1.62 1.717 3.909.282 5.586-1.492 1.743-3.4.555-4.993-.335-6.26-3.496-10.407-8.584-12.242-15.642-1.417-5.453-.914-10.909-.663-16.376.082-1.775.333-3.3-1.887-3.935a202 202 0 0 0-23.444-5.23c1.32 9.694 5.591 18.156 6.525 27.43-2.881.528-4.052-1.23-5.093-2.858-4.131-6.464-8.096-13.075-9.472-20.744-.763-4.258-2.718-6.168-7.122-6.56-7.594-.676-15.17-1.736-22.683-3.04-3.55-.616-7.674-.323-10.438-3.936 2.354-3.275 5.824-3.422 9.012-3.525 27.088-.878 53.36 3.004 78.417 13.789 1.4.603 2.804 1.975 4.898.661 0-7.502-.04-15.15.023-22.795.021-2.532-1.259-3.645-3.578-3.872-10.745-1.054-21.489-2.94-32.24-2.985-38.483-.16-76.98-.791-115.454.811-2.231.093-4.509.13-5.587 2.448-1.096 2.356-.36 4.703 1.234 6.523 3.285 3.75 6.467 7.638 11.223 10.909m658.175 11.655c.183 8.066-.454 16.122-1.113 24.349 1.278 0 1.789.113 2.222-.023 1.11-.346 2.182-.81 3.275-1.215 17.646-6.528 30.776-18.885 42.514-33.009 12.12-14.582 22.945-30.277 37.336-42.897 7.288-6.39 13.614-13.728 19.461-21.426 6.218-8.184 13.258-15.941 15.864-26.313 1.57-6.25-1.698-9.988-7.876-8.794-11.246 2.172-22.522 4.262-33.66 6.915-23.767 5.661-47.524 11.427-70.732 19.142-10.747 3.572-11 3.88-9.119 14.859.723 4.22-.401 8.895 2.143 13.243 21.322-11.029 42.708-20.519 66.132-27.14-1.353 3.41-3.578 4.408-5.442 5.675-7.584 5.155-15.406 9.964-23.763 13.736-4.73 2.135-6.575 5.03-6.47 10.371.212 10.871-1.89 21.492-5.904 31.64-2.037 5.147-5.386 9.25-10.978 11.517.878-7.769 5.984-14.087 6.684-21.86.691-7.68 2.588-15.252 2.53-23.531-6.562 2.287-11.657 6.031-17.107 9.127-3.733 2.121-5.222 4.823-5.206 9.248.042 11.816.835 23.664-.791 36.386m-288.36 226.454c20.535 1.788 41.062 3.704 61.695 1.355 15.701-1.787 30.678-5.837 44.284-14.09 4.749-2.882 9.353-6.063 13.525-11.705-7.699 1.322-14.241 1.113-20.45-.977-4.395 5.98-7.988 5.588-10.95-.95-.679-1.498-1.039-3.14-1.553-4.714-1.677-5.134-.441-10.542-1.266-15.868-.689 0-1.17-.045-1.64.01a28 28 0 0 0-2.458.394c-29.38 6.171-58.904 7.444-88.611 2.618-6-.975-7.011-.026-6.073 6.178.653 4.317 1.043 8.62.273 12.911-.48 2.667-1.495 5.329-4.762 5.655-3.147.315-4.99-1.506-5.774-4.4-.708-2.612-2.1-3.204-4.799-2.703-2.908.54-5.995.528-8.96.265-5.3-.47-9.894.81-14.068 4.495 14.363 13.494 31.96 18.764 51.587 21.526m60.007 30.302c2.765-.501 2.495-2.662 2.575-4.66.189-4.726-.613-9.499 1.087-14.623-15.091 1.438-29.781 2.183-44.413 2.06-1.182 14.904 1.113 17.888 11.89 16.335-2.226-7.145-1.03-10.47 5.012-12.372 4.162-1.31 8.545-1.314 12.739.134 3.092 1.067 5.325 3.284 4.785 6.72-.564 3.584-3.139 5.26-6.852 5.186-4.121-.083-8.246-.02-12.37-.02l.035 1.277c8.21 1.072 16.427 1.758 25.512-.037m44.311-366.324c-9.675-2.374-19.428-2.58-29.58-1.527 10.172 14.702 32.08 17.346 42.636 5.495-3.727-2.446-8.119-2.718-13.056-3.968m-143.31 1.087c-2.663-.008-5.346.193-7.985-.063-8.252-.8-12.782 3.934-16.357 10.382 10.225 7.298 24.341 3.343 32.043-8.97-2.329-.452-4.573-.887-7.701-1.35m-202.09 180.254c3.765.813 5.608-1.253 6.408-4.51.66-2.686-.207-5.008-2.776-6.24-2.522-1.21-5.085-.576-6.761 1.477-3.196 3.913-.602 6.627 3.13 9.273"></path><path d="M441.776 167.12c-9.704.274-18.469 2.962-27.222 5.56-7.073 2.1-14.35 3.607-21.592 3.403-11.72-.332-20.773 4.369-29.105 11.976-7.146 6.525-14.904 12.237-24.764 14.327-14.05 2.98-26.017-1.6-37.44-10.154 3.287 7.779 8.467 13.149 14.883 17.639 6.373 4.46 13.853 4.991 21.202 6.315-2.608 5.744-7.717 9.426-14.207 7.921-10.925-2.534-18.18 3.493-25.678 9.147-11.829 8.918-19.504 21.239-26.643 33.921-5.072 9.01-10.181 18.006-18.25 24.81-2.108 1.777-4.08 3.862-8.379 4.372 3.415-17.522 11.584-32.078 20.39-46.377 8.987-14.591 20.553-26.53 36.221-34.967-13.263-13.559-15.607-29.79-12.243-47.246.725-3.767 1.122-8.208 5.36-11.027 1.702 2.747.808 5.517 1.356 8.006 5.01 22.767 31.806 33.658 51.54 20.934 5.92-3.817 10.778-8.902 16.203-13.308 7.14-5.8 15.06-9.098 24.313-8.704 7.402.315 14.552-.836 21.606-3 9.667-2.966 19.403-5.69 30.082-7.368-16.367-15.572-37.867-15.438-57.514-20.668 6.454-10.274 35.447-21.289 60.281-11.895 18.97 7.176 35.309 22.086 33.512 32.394-3.33-.287-5.74-2.417-8.197-4.25-11.046-8.24-22.794-15.06-36.462-17.848-4.658-.95-9.45-1.24-14.301-1.375 13.513 2.577 24.242 10.473 35.02 18.065 7.916 5.576 16.607 8.2 26.052 8.936 2.168.169 4.309.275 6.041 1.795-1.524 5.552-5.07 8.64-10.478 8.856-3.646.146-7.288.263-10.91-.748-6.76-1.885-13.51-.694-20.677.559m87.455-84.339c-1.092-2.862.466-3.358 2.37-2.99 18.795 3.633 42.862 17.008 49.595 40.758 3.705 13.065.235 22.857-11.072 31.72 3.674 1.986 7.687 2.252 11.437 2.952 25.735 4.802 48.43 16.22 69.538 31.258 2.04 1.454 3.819 2.97 2.96 5.678-.888 2.807-2.916 4.213-6.014 4.316-3.392.112-6.14-1.363-8.835-3.013-14.834-9.08-30.456-16.449-47.119-21.472-15.308-4.615-30.786-8.023-46.971-7.976-6.895.02-13.834-1.58-20.682-2.832-9.68-1.768-19.21-.426-28.778.75-2.405.295-5.679 1.619-6.864-.875-1.466-3.087 2.039-4.578 4.127-5.844 7.193-4.361 15.11-8.25 23.45-7.309 13.657 1.54 26.011-13.026 28.338-23.618 3.234-14.728-2.853-26.276-11.652-37.084-1.156-1.42-2.421-2.75-3.828-4.42m22.171 56.96c-2.418 4.299-6.363 7.195-10.44 10.672 6.095.493 11.334-.415 16.168-2.669 6.767-3.156 11.236-8.429 11.406-16.17.176-8.023-7.437-21.957-14.234-27.064 3.666 11.9 4.044 23.512-2.9 35.231M234.685 608.149c1.589-9.753 1.734-19.295 4.837-28.324.432-1.255.784-2.549 1.337-3.75 1.685-3.662 4.408-5.516 8.633-5.515 4.282.002 6.437 2.523 7.725 5.915 3.56 9.37 5.023 19.234 6.078 29.128 1.091 10.222 1.99 20.473 2.637 30.733.628 9.98-.047 19.91-2.644 29.63-.693 2.59-1.898 4.963-3.418 7.173-6.504 9.46-16.988 8.802-22.155-1.495-3.894-7.762-4.533-16.278-4.84-24.73-.464-12.802.99-25.546 1.81-38.765m347.466-144.322c.539-2.565 2.06-3.722 4.186-4.114s4.265-.898 6.41-.964c13.814-.422 27.632-1.031 41.448-.993 10.673.03 21.293-.975 31.95-.964 2.156.003 4.346.065 6.458.447 2.192.397 5.219.384 5.298 3.462.071 2.778-2.642 3.524-4.816 4.371-1.063.415-2.159.745-3.61 1.24 2.503 1.83 5.636 1.972 7.569 5.064-5.723 5.922-13.687 4.334-20.163 6.12 3.256 0 6.924.101 10.583-.044 1.718-.069 3.288.055 4.831.84 1.188.606 2.656.993 2.742 2.572.1 1.81-1.387 2.654-2.776 3.123-1.872.632-3.857 1.17-5.817 1.268-23.135 1.148-46.289 1.29-69.446 1.067-2.632-.025-5.758.127-6.372-3.361-.548-3.107 2.299-3.586 4.392-4.507.253-.111.396-.47.662-.804-1.444-1.535-3.615-1.484-5.275-2.46-1.127-.661-3.151-1.736-3.04-2.26.98-4.652-3.923-5.595-5.214-9.103m-211.294 31.281c.456-2.486 2.472-2.87 4.09-3.909-.995-2.307-5.232-2.855-3.659-6.297 2.02-4.42 6.566-3.855 11.424-4.973-4.022-.926-6.97-1.696-10.116-1.6-2 .06-4.522.144-4.671-2.5-.149-2.621 2.47-2.915 4.361-3.055 10.604-.785 21.216-1.89 31.833-1.975 15.815-.126 31.587-1.768 47.412-1.149 1.164.046 2.332.003 3.497.015 2.622.028 5.47.417 5.849 3.419.348 2.758-2.652 2.942-4.56 3.717-1.152.467-2.405.685-3.724 1.046.285.364.353.547.469.584 3.01.97 7.756.63 7.428 4.962-.291 3.848-4.8 3.941-7.998 4.674-1.046.24-2.147.242-3.304.361 2.238.39 4.422.548 6.451 1.194 1.67.53 3.693 1.253 3.472 3.631-.186 2.001-1.91 2.597-3.538 3.005-1.768.443-3.577.93-5.381.986-23.617.74-47.236 1.42-70.856 2.079-3.397.094-6.757-.096-8.479-4.215m293.511 379.346c28.585 7.276 54.757 19.747 81.455 30.858 21.963 9.141 43.298 19.746 65.617 28.045 3.712 1.38 7.515 2.52 11.28 4.372-5.044.651-10.069.94-15.171.131-17.444-2.764-33.425-9.834-49.382-16.885-40.045-17.696-80.662-33.804-123.073-45.005-22.947-6.062-46.074-11.253-69.739-13.676-.979-.1-1.968-.15-2.443-1.263 9.034-4.776 57.853 1.69 101.456 13.423m-188.785-17.959c23.251-12.426 46.614-23.736 70.83-33.23 9.17-3.595 18.708-5.792 28.387-7.413 1.674-.28 3.544-.816 5.489.855-66.947 28.759-131.285 62.3-196.537 94.012 28.888-20.82 59.91-37.92 91.831-54.224M268.747 755.61c-3.71 6.575-7.535 12.614-12.872 17.525-2.31 2.125-4.797 3.933-9.183 3.537 29.25-49.562 37.247-103.607 37.11-160.615 9.998 19.945 6.528 99.234-15.055 139.553M376.9 396.867c-4.45 5.207-8.621 10.198-13.504 14.504-1.605 1.415-3.419 2.646-5.292 3.68-.969.533-2.301.49-3.244-.484-.974-1.007-.816-2.22-.174-3.23a72 72 0 0 1 4.01-5.687c15.686-20.09 30.081-41.09 44.148-62.327 1.063-1.605 1.842-3.527 4.062-4.807.883 4.315-.87 7.88-2.207 11.43-6.461 17.152-16.194 32.39-27.798 46.921M590.676 211.04c16.117 8.243 27.715 20.584 37.424 35.306-3.633 1.954-5.56-.145-7.427-1.553-7.43-5.602-14.732-11.373-22.084-17.078-7.8-6.053-16.433-10.644-25.453-14.574-1.632-.712-3.529-1.051-5.128-3.386 7.881-4.18 15.094-1.293 22.668 1.285m-69.382 370.33c-2.861 1.743-5.325 3.47-7.985 4.807-1.515.762-3.571 2.069-5.004.193-1.362-1.782.07-3.45 1.31-4.83 1.22-1.36 2.454-2.725 3.82-3.93 4.361-3.85 8.8-7.61 13.184-11.434 3.078-2.685 6.427-3.358 10.113-1.417 6.361 3.35 11.965 7.789 17.446 12.378 1.261 1.056 2.27 2.459 1.715 4.386-2.574 1.729-4.868.224-7.03-.757-4.08-1.853-8.103-3.864-12.003-6.068-2.683-1.516-4.83-1.455-7.224.589-2.519 2.15-5.338 3.95-8.342 6.083m108.325-235a222258 222258 0 0 1 39.707 30.376c-3.056 2.32-5.011 1.435-7.009.703-8.132-2.982-14.732-8.384-21.341-13.696-7.671-6.165-14.627-13.13-21.437-20.226-1.087-1.133-2.646-2.19-1.493-4.874 4.442 1.548 7.656 4.876 11.573 7.718M336.083 669.02c-1.097 14.147-4.558 27.205-10.903 39.436-1.32 2.544-2.575 5.426-6.045 5.556-1.69-1.821-.708-3.468-.164-4.905 5.052-13.354 9.223-26.963 12.333-40.902.357-1.598.055-4.3 2.666-4.028 2.304.24 2.04 2.617 2.113 4.843m310.794 49.194c1.384-6.228.686-11.982.054-17.768-.3-2.759-.051-5.578-.051-8.488 8.172 3.596 8.949 36.887.875 46.704-4.64-6.717-.351-13.536-.878-20.448m-11.151 4.868c2.16-11.404.61-22.187-1.498-32.943-.37-1.89-1.553-4.32 1.002-5.173 2.75-.919 3.104 1.97 3.695 3.663 4.197 12.026 4.324 24.34 2.152 36.744-.296 1.693-.788 4.09-3.25 3.554-2.916-.635-1.954-3.365-2.101-5.845m-225.074-28.05c.41-2.724-.971-5.425 2.5-8.1 2.897 16.027 7.72 30.83 11.986 45.844-9-10.85-13.008-23.58-14.486-37.744m-6.147 9.888c3.087 13.224 10.896 24.453 14.098 37.27-2.644.899-3.242-.28-3.829-1.208-5.883-9.3-10.463-19.18-12.873-29.958-.423-1.893-.307-3.981-.055-5.93.24-1.844 1.4-1.433 2.659-.175m22.87-248.551c-1.28-.047-2.118-.018-2.93-.15-1.407-.23-2.616-.919-2.69-2.464-.086-1.797 1.448-1.855 2.738-2.21 2.589-.71 5.215-.875 7.874-.87 6.793.012 13.585-.03 20.377.025 1.803.015 4.09.018 4.127 2.471.033 2.166-2.215 2.14-3.767 2.423-8.381 1.527-16.85.486-25.729.775m159.396-9.998c7.956-1.547 15.62.085 23.16-1.134.883-.143 1.612.225 1.965 1.116.348.879.072 1.66-.59 2.22-.62.522-1.337 1.182-2.074 1.273-8.063.998-16.156.502-24.24.322-.997-.022-1.955-.78-1.793-1.949.253-1.83 1.984-1.339 3.572-1.847m-49.98 65.366c-2.024 1.934-3.701 1.728-4.67-.378-.863-1.874-.685-3.93.713-5.635 1.034-1.26 2.38-1.118 3.58-.343 2.639 1.706 1.976 3.856.377 6.356m288.312 318.225c-20.935-18.901-34.153-42.816-46.686-67.067-13.867-26.83-23.729-55.198-30.229-84.715-.458-2.081-.991-4.105.178-5.9 1.763-.273 2.196.803 2.484 1.669 19.624 58.958 46.886 113.887 86.352 162.522-5.321-.283-8.185-3.955-12.099-6.509"></path></svg><style>@media (prefers-color-scheme: light) { :root { filter: none; } }
@media (prefers-color-scheme: dark) { :root { filter: invert(100%); } }
</style></svg>